<svg width="1024" height="1024" viewBox="0 0 1024 1024" fill="none" xmlns="http://www.w3.org/2000/svg">
<g clip-path="url(#clip0)">
<path fill-rule="evenodd" clip-rule="evenodd" d="M-160.163 -90.3208H1154.27V1102.91H-160.163V-90.3208Z" fill="#AB2020" stroke="black" stroke-linejoin="round"/>
<path fill-rule="evenodd" clip-rule="evenodd" d="M949.103 945.81H949.717H949.103Z" fill="white" stroke="black" stroke-linejoin="round"/>
<g filter="url(#filter0_d)">
<path fill-rule="evenodd" clip-rule="evenodd" d="M413.536 116.95C406.423 116.95 400.425 117.787 394.341 117.907V296.779C394.255 306.823 387.571 314.953 379.944 314.953C372.317 314.953 366.233 306.823 366.233 296.779V118.863C343.781 120.896 332.641 124.602 332.641 124.602C332.641 124.602 327.242 266.17 327.156 347.475C327.156 438.227 390.227 438.944 390.227 474.695C390.142 510.326 371.032 657.991 371.032 741.568C371.032 894.734 393.912 907.049 412.851 907.049C431.789 907.169 455.441 894.734 455.355 741.568C455.441 657.991 435.474 510.326 435.474 474.695C435.388 438.944 498.459 439.542 498.545 347.475C498.545 294.029 493.061 124.602 493.061 124.602C493.061 124.602 482.349 120.896 459.468 118.863V298.692C459.468 308.736 453.384 316.986 445.757 316.866C438.13 316.866 431.361 308.736 431.361 298.692V117.907C425.705 117.667 419.963 117.07 413.536 116.95ZM591.095 120.776V316.866C591.095 404.987 585.61 448.151 585.61 487.13C585.61 526.228 567.786 638.86 567.786 730.09C567.786 897.603 586.81 906.93 610.29 907.049C633.856 907.049 652.795 897.603 652.795 730.09C652.709 638.86 630.857 603.588 630.857 564.609C630.771 498.369 696.585 472.901 696.67 372.345C696.585 313.877 706.354 120.776 591.095 120.776Z" fill="white"/>
</g>
</g>
<defs>
<filter id="filter0_d" x="327.156" y="116.95" width="389.688" height="810.1" filterUnits="userSpaceOnUse" color-interpolation-filters="sRGB">
<feFlood flood-opacity="0" result="BackgroundImageFix"/>
<feColorMatrix in="SourceAlpha" type="matrix" values="0 0 0 0 0 0 0 0 0 0 0 0 0 0 0 0 0 0 127 0"/>
<feOffset dx="10" dy="10"/>
<feGaussianBlur stdDeviation="5"/>
<feColorMatrix type="matrix" values="0 0 0 0 0 0 0 0 0 0 0 0 0 0 0 0 0 0 0.25 0"/>
<feBlend mode="normal" in2="BackgroundImageFix" result="effect1_dropShadow"/>
<feBlend mode="normal" in="SourceGraphic" in2="effect1_dropShadow" result="shape"/>
</filter>
<clipPath id="clip0">
<rect width="1024" height="1024" fill="white"/>
</clipPath>
</defs>
</svg>
